<svg width="30" height="30" viewBox="0 0 30 30" fill="none" xmlns="http://www.w3.org/2000/svg">
<path d="M19.2624 15.0563C19.2518 14.3013 19.0409 13.5627 18.6512 12.916C18.2615 12.2694 17.707 11.7378 17.0445 11.3757C16.382 11.0136 15.6352 10.834 14.8804 10.8552C14.1257 10.8764 13.3902 11.0977 12.749 11.4965C12.1079 11.8953 11.5842 12.4572 11.2315 13.1248C10.8788 13.7923 10.7097 14.5416 10.7416 15.2959C10.7735 16.0503 11.0051 16.7826 11.4129 17.4181C11.8207 18.0535 12.3899 18.5692 13.0624 18.9125L11.3561 28.05C12.5477 28.3421 13.7736 28.4703 14.9999 28.4313C16.2283 28.4733 17.4566 28.345 18.6499 28.05L16.9499 18.9125C17.6536 18.5457 18.2422 17.9914 18.6503 17.3107C19.0585 16.6301 19.2703 15.8498 19.2624 15.0563Z" stroke="#686868" stroke-linecap="round" stroke-linejoin="round"/>
<path d="M15.0001 1.56251C12.0428 1.57848 9.17234 2.56421 6.82913 4.36849C4.48592 6.17277 2.79934 8.69595 2.02811 11.551C1.25689 14.406 1.4436 17.4352 2.55961 20.174C3.67562 22.9127 5.6593 25.2096 8.20634 26.7125L10.2813 20.35C8.89985 19.0847 8.07118 17.3271 7.97413 15.4562C7.87708 13.5854 8.51944 11.7514 9.76259 10.35C10.3791 9.65745 11.1268 9.09403 11.9625 8.69235C12.7982 8.29067 13.7052 8.05871 14.6312 8.00988C15.5571 7.96106 16.4835 8.09634 17.3568 8.40791C18.2301 8.71947 19.0329 9.20113 19.7188 9.82501C21.1003 11.0903 21.929 12.8479 22.0261 14.7188C22.1231 16.5896 21.4808 18.4236 20.2376 19.825C20.0764 20.0112 19.9031 20.1866 19.7188 20.35L21.7938 26.7125C24.8667 24.8915 27.0962 21.9309 27.9974 18.4745C28.8987 15.0182 28.3987 11.3459 26.6063 8.25626C25.4308 6.21886 23.7389 4.52734 21.7013 3.35217C19.6637 2.177 17.3523 1.55971 15.0001 1.56251Z" stroke="#686868" stroke-linecap="round" stroke-linejoin="round"/>
</svg>
