<svg width="24" height="24" viewBox="0 0 24 24" fill="none" xmlns="http://www.w3.org/2000/svg">
<path d="M2 9C2.79565 9 3.55871 8.68393 4.12132 8.12132C4.68393 7.55871 5 6.79565 5 6M2 15C2.79565 15 3.55871 15.3161 4.12132 15.8787C4.68393 16.4413 5 17.2044 5 18M22 9C21.2044 9 20.4413 8.68393 19.8787 8.12132C19.3161 7.55871 19 6.79565 19 6M22 15C21.2044 15 20.4413 15.3161 19.8787 15.8787C19.3161 16.4413 19 17.2044 19 18M1 5H23V19H1V5ZM12 16C13.657 16 15 14.21 15 12C15 9.79 13.657 8 12 8C10.343 8 9 9.79 9 12C9 14.21 10.343 16 12 16Z" stroke="#686868" stroke-width="2"/>
</svg>
