<svg width="28" height="28" viewBox="0 0 28 28" fill="none" xmlns="http://www.w3.org/2000/svg">
<circle cx="14" cy="14" r="14" fill="white"/>
<path d="M9.41083 19.3333C9.10372 19.3333 8.8475 19.2307 8.64216 19.0253C8.43683 18.82 8.33394 18.5636 8.3335 18.256V9.744C8.3335 9.43689 8.43639 9.18067 8.64216 8.97533C8.84794 8.77 9.10394 8.66711 9.41016 8.66667H15.6155V9.33333H9.41083C9.30816 9.33333 9.21394 9.376 9.12816 9.46133C9.04238 9.54667 8.99972 9.64089 9.00016 9.744V18.2567C9.00016 18.3589 9.04283 18.4529 9.12816 18.5387C9.2135 18.6244 9.3075 18.6671 9.41016 18.6667H17.9235C18.0257 18.6667 18.1197 18.624 18.2055 18.5387C18.2913 18.4533 18.3339 18.3593 18.3335 18.2567V12.0513H19.0002V18.2567C19.0002 18.5633 18.8975 18.8196 18.6922 19.0253C18.4868 19.2311 18.2304 19.3338 17.9228 19.3333H9.41083ZM11.3335 17V16.3333H16.0002V17H11.3335ZM11.3335 15V14.3333H16.0002V15H11.3335ZM11.3335 13V12.3333H16.0002V13H11.3335ZM17.6668 11.3333V10H16.3335V9.33333H17.6668V8H18.3335V9.33333H19.6668V10H18.3335V11.3333H17.6668Z" fill="#01FF66"/>
</svg>
