<svg width="6" height="20" viewBox="0 0 6 20" fill="none" xmlns="http://www.w3.org/2000/svg">
<path d="M5.17851 2.52068C5.1786 2.80685 5.12233 3.09023 5.01291 3.35464C4.90348 3.61906 4.74305 3.85933 4.54076 4.06175C4.33848 4.26416 4.09831 4.42475 3.83396 4.53434C3.56962 4.64394 3.28628 4.70039 3.00011 4.70048C2.71395 4.70058 2.43057 4.6443 2.16615 4.53488C1.90174 4.42545 1.66146 4.26502 1.45905 4.06274C1.25664 3.86045 1.09605 3.62028 0.986455 3.35594C0.87686 3.09159 0.820405 2.80825 0.820313 2.52209C0.820127 1.94415 1.04953 1.38982 1.45806 0.981024C1.86659 0.572232 2.42078 0.342471 2.99871 0.342285C3.57665 0.3421 4.13098 0.571505 4.53977 0.980034C4.94857 1.38856 5.17833 1.94275 5.17851 2.52068Z" fill="black"/>
<path d="M3.00067 12.1781C4.20376 12.1781 5.17906 11.2028 5.17906 9.99969C5.17906 8.79659 4.20376 7.82129 3.00067 7.82129C1.79757 7.82129 0.822266 8.79659 0.822266 9.99969C0.822266 11.2028 1.79757 12.1781 3.00067 12.1781Z" fill="black"/>
<path d="M2.99969 19.6581C4.20279 19.6581 5.17809 18.6828 5.17809 17.4797C5.17809 16.2766 4.20279 15.3013 2.99969 15.3013C1.79659 15.3013 0.821289 16.2766 0.821289 17.4797C0.821289 18.6828 1.79659 19.6581 2.99969 19.6581Z" fill="black"/>
</svg>
