<svg width="46" height="46" viewBox="0 0 46 46" fill="none" xmlns="http://www.w3.org/2000/svg">
<path d="M29.5265 5.75303C30.9378 4.33784 32.8536 3.54128 34.8523 3.53858C36.851 3.53589 38.7689 4.32728 40.1841 5.73866C41.5993 7.15004 42.3958 9.0658 42.3985 11.0645C42.4012 13.0632 41.6098 14.9811 40.1985 16.3963L18.7251 37.9329C18.2726 38.3872 17.7246 38.7349 17.1208 38.9507L5.70995 43.0217C5.32515 43.1591 4.90923 43.1843 4.51064 43.0944C4.11205 43.0046 3.74719 42.8033 3.45858 42.5141C3.16996 42.2249 2.96945 41.8596 2.88042 41.4608C2.79139 41.062 2.8175 40.6462 2.9557 40.2617L7.05545 28.868C7.26967 28.2728 7.61222 27.732 8.05882 27.2839L29.5265 5.75303ZM38.1572 7.77703C37.7242 7.34364 37.2099 6.99994 36.6438 6.76561C36.0778 6.53129 35.471 6.41094 34.8584 6.41148C34.2457 6.41201 33.6392 6.53341 33.0735 6.76872C32.5079 7.00404 31.9942 7.34864 31.5619 7.78278L29.3137 10.0368L35.9061 16.6292L38.1629 14.3665C38.5955 13.9336 38.9385 13.4197 39.1723 12.8542C39.4061 12.2886 39.5262 11.6826 39.5256 11.0706C39.5251 10.4586 39.404 9.85277 39.1692 9.28764C38.9344 8.72251 38.5905 8.2092 38.1572 7.77703ZM33.8763 18.6647L27.2839 12.0723L10.0943 29.3137C9.94568 29.4634 9.83182 29.644 9.76082 29.8427L6.1757 39.8017L16.1519 36.2424C16.3542 36.1709 16.5379 36.0549 16.6896 35.9032L33.8763 18.6647ZM25.4641 5.75016H4.3127C3.93145 5.75016 3.56582 5.90161 3.29623 6.17119C3.02665 6.44078 2.8752 6.80641 2.8752 7.18766C2.8752 7.56891 3.02665 7.93454 3.29623 8.20413C3.56582 8.47371 3.93145 8.62516 4.3127 8.62516H22.5977L25.4641 5.75016ZM19.7313 11.5002H4.3127C3.93145 11.5002 3.56582 11.6516 3.29623 11.9212C3.02665 12.1908 2.8752 12.5564 2.8752 12.9377C2.8752 13.3189 3.02665 13.6845 3.29623 13.9541C3.56582 14.2237 3.93145 14.3752 4.3127 14.3752H16.865L19.7313 11.5002ZM14.0014 17.2502H4.3127C3.93145 17.2502 3.56582 17.4016 3.29623 17.6712C3.02665 17.9408 2.8752 18.3064 2.8752 18.6877C2.8752 19.0689 3.02665 19.4345 3.29623 19.7041C3.56582 19.9737 3.93145 20.1252 4.3127 20.1252H11.1351L14.0014 17.2502Z" fill="white"/>
</svg>
