<svg width="51" height="51" viewBox="0 0 51 51" fill="none" xmlns="http://www.w3.org/2000/svg">
<circle cx="25.5" cy="25.5" r="25.5" fill="#01FF66"/>
<path fill-rule="evenodd" clip-rule="evenodd" d="M31.3976 18.5773C30.8909 18.668 30.1762 18.9027 29.0296 19.284L20.3736 22.1707C19.2696 22.5387 18.4909 22.7987 17.9309 23.0173C17.7253 23.0948 17.5242 23.1834 17.3282 23.2827C17.2136 23.3427 17.1736 23.376 17.1709 23.376C17.0425 23.5003 16.9403 23.6492 16.8706 23.8138C16.8009 23.9783 16.7649 24.1552 16.7649 24.334C16.7649 24.5127 16.8009 24.6896 16.8706 24.8542C16.9403 25.0188 17.0425 25.1677 17.1709 25.292C17.2202 25.3285 17.2729 25.3602 17.3282 25.3867C17.4616 25.4573 17.6549 25.544 17.9309 25.6533C18.4909 25.8707 19.2696 26.1307 20.3736 26.4987L20.4482 26.524C20.8122 26.644 21.1322 26.7507 21.4269 26.9067C22.1372 27.2822 22.718 27.863 23.0936 28.5733C23.2496 28.8667 23.3562 29.1867 23.4762 29.552L23.5029 29.6267C23.8696 30.7307 24.1296 31.5093 24.3482 32.0693C24.4251 32.2751 24.5136 32.4763 24.6136 32.672C24.6736 32.7867 24.7069 32.8267 24.7069 32.8293C24.8312 32.9577 24.9801 33.0599 25.1447 33.1296C25.3092 33.1993 25.4861 33.2353 25.6649 33.2353C25.8436 33.2353 26.0205 33.1993 26.1851 33.1296C26.3497 33.0599 26.4986 32.9577 26.6229 32.8293C26.6594 32.78 26.6911 32.7273 26.7176 32.672C26.7882 32.5387 26.8749 32.3453 26.9842 32.068C27.2016 31.508 27.4616 30.7307 27.8296 29.628L30.7136 20.9733C31.0962 19.8267 31.3309 19.1093 31.4202 18.604L31.4269 18.5733C31.4167 18.5751 31.4064 18.5768 31.3962 18.5787M30.9296 15.9533C31.6629 15.8227 32.6696 15.784 33.4429 16.5573C34.2162 17.3307 34.1762 18.336 34.0469 19.0707C33.9189 19.7933 33.6162 20.6987 33.2762 21.72L33.2442 21.816L30.3589 30.4693L30.3456 30.5093C29.9936 31.5653 29.7136 32.408 29.4669 33.0373C29.2362 33.6307 28.9629 34.244 28.5496 34.6733C28.1763 35.0617 27.7285 35.3707 27.2329 35.5817C26.7373 35.7928 26.2042 35.9016 25.6656 35.9016C25.1269 35.9016 24.5938 35.7928 24.0982 35.5817C23.6027 35.3707 23.1548 35.0617 22.7816 34.6733C22.3682 34.244 22.0949 33.6307 21.8642 33.0373C21.6176 32.408 21.3376 31.5653 20.9842 30.508L20.9709 30.4707C20.8109 29.9893 20.7749 29.8933 20.7362 29.82C20.611 29.583 20.4172 29.3892 20.1802 29.264C20.1069 29.224 20.0109 29.1893 19.5296 29.028L19.4922 29.0147C18.4349 28.6627 17.5922 28.3827 16.9616 28.136C16.3696 27.9053 15.7562 27.632 15.3269 27.2187C14.9385 26.8454 14.6295 26.3976 14.4185 25.902C14.2074 25.4064 14.0986 24.8733 14.0986 24.3347C14.0986 23.796 14.2074 23.2629 14.4185 22.7673C14.6295 22.2718 14.9385 21.8239 15.3269 21.4507C15.7562 21.0373 16.3696 20.764 16.9616 20.5333C17.7984 20.2211 18.6422 19.9276 19.4922 19.6533L19.5296 19.64L28.1842 16.756L28.2802 16.724C29.3016 16.384 30.2069 16.0813 30.9296 15.9533Z" fill="white"/>
</svg>
