<svg width="244" height="168" viewBox="0 0 244 168" fill="none" xmlns="http://www.w3.org/2000/svg">
<rect width="244" height="168" fill="#797979"/>
<path d="M133.502 48C131.115 48 128.826 48.9482 127.138 50.636C125.45 52.3239 124.502 54.6131 124.502 57C124.502 59.3869 125.45 61.6761 127.138 63.364C128.826 65.0518 131.115 66 133.502 66C135.889 66 138.178 65.0518 139.866 63.364C141.554 61.6761 142.502 59.3869 142.502 57C142.502 54.6131 141.554 52.3239 139.866 50.636C138.178 48.9482 135.889 48 133.502 48ZM115.502 57C115.502 52.2261 117.399 47.6477 120.774 44.2721C124.15 40.8964 128.728 39 133.502 39C138.276 39 142.854 40.8964 146.23 44.2721C149.606 47.6477 151.502 52.2261 151.502 57C151.502 61.7739 149.606 66.3523 146.23 69.7279C142.854 73.1036 138.276 75 133.502 75C128.728 75 124.15 73.1036 120.774 69.7279C117.399 66.3523 115.502 61.7739 115.502 57ZM101.678 66.558L121.564 98.1255L133.178 80.238L164.849 129H62.3481L101.678 66.558ZM101.678 83.442L78.6561 120H148.271L133.178 96.762L121.447 114.825L101.678 83.442Z" fill="#BFBFBF"/>
</svg>
