<svg width="25" height="21" viewBox="0 0 25 21" fill="none" xmlns="http://www.w3.org/2000/svg">
<path d="M2.08333 4.2H0V9.45H0.0104167L0 18.9C0 20.055 0.9375 21 2.08333 21H20.8333V18.9H2.08333V4.2ZM7.29167 13.65H21.875L18.2292 8.925L15.625 12.0855L11.9792 7.35L7.29167 13.65ZM22.9167 2.1H14.5833L12.5 0H6.25C5.10417 0 4.17708 0.945 4.17708 2.1L4.16667 14.7C4.16667 15.855 5.10417 16.8 6.25 16.8H22.9167C24.0625 16.8 25 15.855 25 14.7V4.2C25 3.045 24.0625 2.1 22.9167 2.1ZM22.9167 14.7H6.25V2.1H11.6354L13.1042 3.5805L13.7188 4.2H22.9167V14.7Z" fill="#686868"/>
</svg>
