<svg width="30" height="31" viewBox="0 0 30 31" fill="none" xmlns="http://www.w3.org/2000/svg">
<path d="M17.1598 20.8889V21.836C17.1598 22.8407 16.7629 23.8043 16.0565 24.5148C15.35 25.2252 14.3919 25.6244 13.3928 25.6244C12.3937 25.6244 11.4355 25.2252 10.7291 24.5148C10.0226 23.8043 9.62574 22.8407 9.62574 21.836V20.8889M23.4979 18.961C21.9864 17.1006 20.9192 16.1535 20.9192 11.0244C20.9192 6.32739 18.5342 4.654 16.5712 3.84127C16.3105 3.73354 16.065 3.48611 15.9856 3.21679C15.6412 2.03825 14.6759 1 13.3928 1C12.1096 1 11.1437 2.03884 10.8029 3.21797C10.7235 3.49026 10.478 3.73354 10.2173 3.84127C8.25195 4.65518 5.86929 6.32265 5.86929 11.0244C5.86635 16.1535 4.79922 17.1006 3.28769 18.961C2.66142 19.7317 3.20999 20.8889 4.30538 20.8889H22.4861C23.5756 20.8889 24.1206 19.7281 23.4979 18.961Z" stroke="black" stroke-width="1.72803" stroke-linecap="round" stroke-linejoin="round"/>
</svg>
