<svg width="57" height="58" viewBox="0 0 57 58" fill="none" xmlns="http://www.w3.org/2000/svg">
<ellipse cx="28.3977" cy="29.1452" rx="28.134" ry="28.655" fill="#01FF66"/>
<path d="M27.7576 26.6767L28.4188 24.6321C29.0077 22.8108 29.2749 21.2947 29.2757 20.0595L27.7576 26.6767ZM27.7576 26.6767L29.9064 26.676M27.7576 26.6767L29.9064 26.676M29.9064 26.676L34.166 26.6747C34.1661 26.6747 34.1662 26.6747 34.1663 26.6747C34.492 26.6747 34.8135 26.7491 35.1061 26.8923C35.3988 27.0355 35.6549 27.2437 35.8548 27.501C36.0547 27.7583 36.1932 28.0579 36.2596 28.377C36.3261 28.696 36.3187 29.0259 36.2382 29.3417L36.2381 29.342L34.1196 37.6503L35.6342 38.0365L34.1196 37.6503C33.8051 38.884 33.0161 39.9436 31.9244 40.5987C30.8328 41.2537 29.5266 41.4513 28.2901 41.1484C28.29 41.1484 28.29 41.1484 28.2899 41.1483L17.1865 38.427L29.9064 26.676ZM26.7563 18.2194L26.7547 18.2249C26.6166 18.7148 26.3786 19.5414 26.0422 20.7007L26.0356 20.7235L26.0283 20.746C25.98 20.8954 25.9139 21.0384 25.8316 21.1721L25.8248 21.1831L25.8179 21.194L21.9605 27.2318L21.9594 27.2334C20.8655 28.941 19.254 30.2539 17.3605 30.9802L17.3603 30.9803L15.6685 31.629L15.6681 31.6292C15.4941 31.6958 15.3492 31.8216 15.2588 31.9845C15.1684 32.1473 15.1382 32.3368 15.1736 32.5196L26.7563 18.2194ZM26.7563 18.2194C26.7695 18.172 26.7814 18.1304 26.7955 18.0816C26.8533 17.8811 26.9463 17.5581 27.3041 16.2021C27.3333 16.0913 27.3599 15.9936 27.3843 15.907C27.4134 15.9072 27.4433 15.9073 27.4739 15.9073C27.7968 15.9073 28.1903 16.0644 28.5828 16.76M26.7563 18.2194L28.5828 16.76M28.5828 16.76C28.9899 17.4816 29.2755 18.6223 29.2757 20.0595L28.5828 16.76ZM16.0969 37.2827L15.1737 32.5198L17.1863 38.4269C16.9144 38.3602 16.6673 38.217 16.4742 38.0143C16.2812 37.8115 16.1502 37.5577 16.0969 37.2828C16.0969 37.2828 16.0969 37.2828 16.0969 37.2827ZM26.8335 15.8998C26.8334 15.8997 26.8345 15.8996 26.8369 15.8995L26.8335 15.8998Z" stroke="white" stroke-width="3.126"/>
</svg>
