<svg width="48" height="45" viewBox="0 0 48 45" fill="none" xmlns="http://www.w3.org/2000/svg">
<path d="M24 15V22.5L27 25.3125M39.09 30.8494C42.364 32.5069 44 33.3375 44 34.6875C44 36.0375 42.364 36.8681 39.09 38.5256L36.862 39.6525C34.348 40.9256 33.092 41.5612 32.488 41.1C31.008 39.9656 33.314 37.0425 33.88 36.0075C34.456 34.9575 34.444 34.3987 33.88 33.3675C33.314 32.3325 31.008 29.4094 32.488 28.275C33.092 27.8137 34.348 28.4494 36.862 29.7225L39.09 30.8494Z" stroke="white" stroke-width="2.5" stroke-linecap="round" stroke-linejoin="round"/>
<path d="M26.052 41.1525C25.3773 41.2163 24.6933 41.2488 24 41.25C12.954 41.25 4 32.8556 4 22.5C4 12.1444 12.954 3.75 24 3.75C35.046 3.75 44 12.1444 44 22.5C43.9973 23.7875 43.864 25.0375 43.6 26.25" stroke="white" stroke-width="2.5" stroke-linecap="round" stroke-linejoin="round"/>
</svg>
