<svg width="29" height="29" viewBox="0 0 29 29" fill="none" xmlns="http://www.w3.org/2000/svg">
<path d="M13.2311 17.9536L19.222 11.9627L18.3593 11.1012L13.2311 16.2293L10.6477 13.6447L9.78492 14.5075L13.2311 17.9536ZM14.4998 25.3269C12.0727 24.6067 10.056 23.1366 8.44971 20.9165C6.84344 18.6964 6.0407 16.1951 6.0415 13.4127V6.87805L14.4998 3.71826L22.9582 6.87805V13.4127C22.9582 16.1951 22.1554 18.6964 20.55 20.9165C18.9445 23.1366 16.9278 24.6079 14.4998 25.3305M14.4998 24.0473C16.5943 23.3827 18.3262 22.0535 19.6957 20.0598C21.0651 18.066 21.7498 15.8507 21.7498 13.4139V7.70335L14.4998 5.00876L7.24984 7.70335V13.4127C7.24984 15.8495 7.93456 18.0648 9.304 20.0586C10.6734 22.0523 12.4054 23.3827 14.4998 24.0473Z" fill="#686868"/>
</svg>
