<svg width="23" height="17" viewBox="0 0 23 17" fill="none" xmlns="http://www.w3.org/2000/svg">
<path d="M11.4999 13.0198C8.77404 13.0198 6.56748 11.1089 6.36443 8.68719L2.5946 6.04841C2.09903 6.61152 1.64298 7.20685 1.27498 7.85783C1.19277 8.00512 1.14994 8.16785 1.14994 8.33289C1.14994 8.49793 1.19277 8.66066 1.27498 8.80795C3.22387 12.252 7.0821 14.5822 11.4999 14.5822C12.467 14.5822 13.3999 14.452 14.2991 14.2417L12.4343 12.9349C12.1263 12.9888 11.8135 13.0172 11.4999 13.0198ZM22.7778 14.911L18.8049 12.1299C20.0117 11.2088 21.0043 10.0794 21.7248 8.80763C21.807 8.66034 21.8498 8.49761 21.8498 8.33257C21.8498 8.16753 21.807 8.0048 21.7248 7.85751C19.7759 4.41346 15.9177 2.08325 11.4999 2.08325C9.64965 2.08528 7.82946 2.50716 6.20559 3.31036L1.63364 0.109777C1.57402 0.0677581 1.50584 0.0367915 1.433 0.0186468C1.36016 0.000502003 1.28409 -0.0044653 1.20913 0.00402871C1.13418 0.0125227 1.0618 0.0343116 0.996143 0.0681501C0.930486 0.101989 0.872834 0.147214 0.826482 0.201241L0.121031 1.02376C0.0274498 1.1328 -0.0144835 1.27104 0.00445412 1.40807C0.0233917 1.54511 0.101649 1.66972 0.222015 1.7545L21.3661 16.5557C21.4258 16.5977 21.4939 16.6287 21.5668 16.6468C21.6396 16.665 21.7157 16.6699 21.7906 16.6614C21.8656 16.6529 21.938 16.6311 22.0036 16.5973C22.0693 16.5635 22.1269 16.5182 22.1733 16.4642L22.8791 15.6417C22.9726 15.5326 23.0145 15.3944 22.9955 15.2573C22.9765 15.1203 22.8982 14.9957 22.7778 14.911ZM16.1753 10.2889L14.763 9.3001C14.8819 8.98875 14.945 8.66216 14.9499 8.33273C14.9569 7.85043 14.8389 7.37337 14.6054 6.93986C14.372 6.50635 14.0295 6.12847 13.6055 5.83659C13.1815 5.5447 12.6879 5.34695 12.1643 5.2592C11.6406 5.17145 11.1015 5.19617 10.5903 5.33135C10.807 5.59731 10.9242 5.91902 10.9249 6.24957C10.9195 6.35956 10.901 6.4687 10.8695 6.57506L8.22419 4.72333C9.14311 4.02781 10.3024 3.64642 11.4999 3.64562C12.1796 3.64528 12.8527 3.76628 13.4807 4.00171C14.1087 4.23713 14.6794 4.58237 15.16 5.01768C15.6406 5.45298 16.0218 5.96982 16.2817 6.53865C16.5417 7.10747 16.6752 7.71711 16.6749 8.33273C16.6749 9.03677 16.4848 9.69264 16.1753 10.2889Z" fill="black"/>
</svg>
