<svg width="20" height="20" viewBox="0 0 20 20" fill="none" xmlns="http://www.w3.org/2000/svg">
<path fill-rule="evenodd" clip-rule="evenodd" d="M8.04975 3.70503C8.18102 3.57375 8.35907 3.5 8.54472 3.5H11.4447C11.6304 3.5 11.8084 3.57375 11.9397 3.70503C12.071 3.8363 12.1447 4.01435 12.1447 4.2V4.9L7.84472 4.89999V4.2C7.84472 4.01435 7.91847 3.8363 8.04975 3.70503ZM6.34472 4.89999V4.2C6.34472 3.61652 6.57651 3.05694 6.98909 2.64437C7.40167 2.23179 7.96125 2 8.54472 2H11.4447C12.0282 2 12.5878 2.23179 13.0004 2.64437C13.4129 3.05694 13.6447 3.61652 13.6447 4.2V4.9L16.5197 4.89999C16.9339 4.89999 17.2697 5.23578 17.2697 5.64999C17.2697 6.06421 16.9339 6.39999 16.5197 6.39999H15.8197V15.8C15.8197 16.3835 15.5879 16.9431 15.1754 17.3556C14.7628 17.7682 14.2032 18 13.6197 18H6.36972C5.78625 18 5.22667 17.7682 4.81409 17.3556C4.40151 16.9431 4.16972 16.3835 4.16972 15.8V6.39999H3.46973C3.05551 6.39999 2.71973 6.06421 2.71973 5.64999C2.71973 5.23578 3.05551 4.89999 3.46973 4.89999H6.34472ZM5.66972 15.8V6.4H14.3197V15.8C14.3197 15.9857 14.246 16.1637 14.1147 16.295C13.9834 16.4263 13.8054 16.5 13.6197 16.5H6.36972C6.18407 16.5 6.00602 16.4263 5.87475 16.295C5.74347 16.1637 5.66972 15.9857 5.66972 15.8ZM8.54474 8.52502C8.95895 8.52502 9.29474 8.86081 9.29474 9.27502V13.625C9.29474 14.0392 8.95895 14.375 8.54474 14.375C8.13053 14.375 7.79474 14.0392 7.79474 13.625V9.27502C7.79474 8.86081 8.13053 8.52502 8.54474 8.52502ZM12.1947 9.27502C12.1947 8.86081 11.8589 8.52502 11.4447 8.52502C11.0305 8.52502 10.6947 8.86081 10.6947 9.27502V13.625C10.6947 14.0392 11.0305 14.375 11.4447 14.375C11.8589 14.375 12.1947 14.0392 12.1947 13.625V9.27502Z" fill="#EF5350"/>
</svg>
