<svg width="51" height="47" viewBox="0 0 51 47" fill="none" xmlns="http://www.w3.org/2000/svg">
<path d="M40.7783 0.321534C41.0283 0.321324 41.2748 0.380424 41.4975 0.493977C41.7202 0.607531 41.9128 0.772299 42.0595 0.974748L42.1733 1.15807L50.6166 16.989L50.7072 17.204L50.7304 17.284L50.7662 17.4463L50.7873 17.6317L50.7831 17.8424L50.7873 17.7055C50.7851 17.9195 50.7422 18.1312 50.6609 18.3292L50.5976 18.4556L50.5133 18.5947L50.4038 18.7401L26.7637 46.0571C26.5613 46.3275 26.2755 46.5237 25.9504 46.6155L25.8282 46.645L25.6238 46.6745L25.4995 46.6787L25.2887 46.6639L25.1075 46.6302L24.8905 46.5586L24.8357 46.5333C24.6406 46.4466 24.4666 46.3187 24.3258 46.1582L0.576168 18.7106L0.445525 18.5272L0.344382 18.3313L0.270632 18.1206L0.222168 17.8466V17.5769L0.253775 17.3683L0.274847 17.284L0.344382 17.0839L0.403382 16.9637L8.83195 1.16018C8.94943 0.939901 9.11741 0.750588 9.32215 0.607747C9.52689 0.464906 9.76256 0.3726 10.0098 0.338391L10.2227 0.321534H40.7783ZM33.7321 19.2858H17.2647L25.5037 40.6944L33.7321 19.2858ZM13.8828 19.2858H5.24981L20.7858 37.2345L13.8828 19.2858ZM45.747 19.2858H37.1225L30.2258 37.2197L45.747 19.2858ZM17.1236 3.48014H11.1709L4.42803 16.1251H13.75L17.1236 3.48014ZM30.6093 3.48014H20.3938L17.0224 16.1251H33.9786L30.6093 3.48014ZM39.8301 3.48014H33.8775L37.251 16.1251H46.5709L39.8301 3.48014Z" fill="white"/>
</svg>
