<svg width="21" height="21" viewBox="0 0 21 21" fill="none" xmlns="http://www.w3.org/2000/svg">
<path d="M19 10C19 8.21997 18.4722 6.47991 17.4832 4.99987C16.4943 3.51983 15.0887 2.36628 13.4442 1.68509C11.7996 1.0039 9.99002 0.82567 8.24419 1.17294C6.49836 1.5202 4.89472 2.37737 3.63604 3.63604C2.37737 4.89472 1.5202 6.49836 1.17294 8.24419C0.82567 9.99002 1.0039 11.7996 1.68509 13.4442C2.36628 15.0887 3.51983 16.4943 4.99987 17.4832C6.47991 18.4722 8.21997 19 10 19M1.6 7H18.4M1.6 13H9.5" stroke="#686868" stroke-width="2" stroke-linecap="round" stroke-linejoin="round"/>
<path d="M9.50016 1C7.8155 3.69961 6.92236 6.81787 6.92236 10C6.92236 13.1821 7.8155 16.3004 9.50016 19M10.5002 1C12.1166 3.59006 13.0058 6.56766 13.0742 9.62M18.2002 18.2L20.0002 20M13.0002 16C13.0002 16.7956 13.3162 17.5587 13.8788 18.1213C14.4414 18.6839 15.2045 19 16.0002 19C16.7958 19 17.5589 18.6839 18.1215 18.1213C18.6841 17.5587 19.0002 16.7956 19.0002 16C19.0002 15.2044 18.6841 14.4413 18.1215 13.8787C17.5589 13.3161 16.7958 13 16.0002 13C15.2045 13 14.4414 13.3161 13.8788 13.8787C13.3162 14.4413 13.0002 15.2044 13.0002 16Z" stroke="#686868" stroke-width="2" stroke-linecap="round" stroke-linejoin="round"/>
</svg>
