<svg width="41" height="52" viewBox="0 0 41 52" fill="none" xmlns="http://www.w3.org/2000/svg">
<path d="M14.707 29.065L16.8817 21.8625L11.1588 17.661H18.311L20.4997 10.3831L22.6911 17.661H29.8406L24.1009 21.8597L26.2784 29.065L20.4997 24.5927L14.707 29.065ZM6.54134 51.9148V33.5177C4.77329 31.7775 3.40072 29.7396 2.42363 27.4039C1.44655 25.0738 0.958008 22.5781 0.958008 19.9167C0.958008 14.4692 2.85262 9.85085 6.64184 6.06163C10.4311 2.2724 15.0503 0.376862 20.4997 0.375001C25.949 0.37314 30.5683 2.26775 34.3575 6.05883C38.1467 9.84992 40.0413 14.4692 40.0413 19.9167C40.0413 22.5762 39.5528 25.0729 38.5757 27.4067C37.5986 29.7405 36.2261 31.7757 34.458 33.5121V51.9092L20.4997 47.7217L6.54134 51.9148ZM20.4997 36.6667C25.1525 36.6667 29.1073 35.0382 32.3643 31.7813C35.6212 28.5243 37.2497 24.5694 37.2497 19.9167C37.2497 15.2639 35.6212 11.309 32.3643 8.05208C29.1073 4.79514 25.1525 3.16667 20.4997 3.16667C15.8469 3.16667 11.892 4.79514 8.63509 8.05208C5.37815 11.309 3.74967 15.2639 3.74967 19.9167C3.74967 24.5694 5.37815 28.5243 8.63509 31.7813C11.892 35.0382 15.8469 36.6667 20.4997 36.6667ZM9.33301 47.9562L20.4997 44.8267L31.6663 47.9562V35.8683C30.1105 37.0128 28.3805 37.8969 26.4766 38.5203C24.5764 39.1457 22.5841 39.4583 20.4997 39.4583C18.4152 39.4583 16.4229 39.1466 14.5227 38.5231C12.6225 37.8997 10.8926 37.0147 9.33301 35.8683V47.9562Z" fill="white"/>
</svg>
