<svg width="21" height="14" viewBox="0 0 21 14" fill="none" xmlns="http://www.w3.org/2000/svg">
<path d="M20.1001 6.24313C18.1962 2.67148 14.4269 0.254944 10.1111 0.254944C5.79527 0.254944 2.02502 2.67317 0.122157 6.24347C0.0418443 6.39621 0 6.56497 0 6.73613C0 6.90728 0.0418443 7.07604 0.122157 7.22878C2.02607 10.8004 5.79527 13.217 10.1111 13.217C14.4269 13.217 18.1972 10.7987 20.1001 7.22845C20.1804 7.0757 20.2222 6.90694 20.2222 6.73579C20.2222 6.56463 20.1804 6.39587 20.1001 6.24313ZM10.1111 11.5967C9.11121 11.5967 8.13377 11.3116 7.30239 10.7775C6.47101 10.2434 5.82302 9.48428 5.44038 8.59609C5.05773 7.7079 4.95762 6.73057 5.15269 5.78767C5.34776 4.84478 5.82925 3.97867 6.53629 3.29888C7.24332 2.61909 8.14413 2.15615 9.12482 1.9686C10.1055 1.78104 11.122 1.8773 12.0458 2.2452C12.9696 2.6131 13.7591 3.23612 14.3147 4.03546C14.8702 4.83481 15.1667 5.77459 15.1667 6.73596C15.167 7.37437 15.0365 8.00658 14.7825 8.59646C14.5286 9.18633 14.1562 9.7223 13.6867 10.1737C13.2171 10.6252 12.6597 10.9832 12.0462 11.2273C11.4327 11.4715 10.7751 11.597 10.1111 11.5967ZM10.1111 3.49545C9.81028 3.49949 9.51139 3.54252 9.22252 3.62338C9.46063 3.9345 9.5749 4.31735 9.54459 4.70252C9.51429 5.08769 9.34142 5.44966 9.05734 5.72279C8.77326 5.99592 8.39678 6.16213 7.99618 6.19127C7.59558 6.22041 7.19737 6.11055 6.87379 5.88161C6.68953 6.5343 6.7228 7.22611 6.96889 7.85967C7.21499 8.49323 7.66154 9.03664 8.24568 9.41341C8.82982 9.79018 9.52214 9.98135 10.2252 9.95999C10.9283 9.93864 11.6066 9.70584 12.1649 9.29437C12.7231 8.88291 13.1331 8.31348 13.3371 7.66625C13.5411 7.01902 13.5289 6.32657 13.3022 5.68636C13.0755 5.04616 12.6456 4.49043 12.0732 4.09741C11.5007 3.70439 10.8145 3.49386 10.1111 3.49545Z" fill="black"/>
</svg>
