<svg width="55" height="55" viewBox="0 0 55 55" fill="none" xmlns="http://www.w3.org/2000/svg">
<path d="M52.7318 2.69045C52.7109 2.58983 52.6618 2.49727 52.5901 2.42364C52.5184 2.35001 52.4272 2.29838 52.3272 2.27483C45.6602 0.644243 30.2591 6.45429 21.9063 14.8009C20.4177 16.2774 19.0603 17.8805 17.8494 19.5922C15.2748 19.3592 12.7002 19.5554 10.5081 20.5117C4.31802 23.2334 2.51701 30.3418 2.01435 33.3933C1.98712 33.5605 1.99875 33.7318 2.04835 33.8938C2.09795 34.0557 2.18418 34.2041 2.30036 34.3274C2.41654 34.4507 2.55955 34.5456 2.71831 34.6047C2.87707 34.6639 3.04731 34.6856 3.21584 34.6684L13.1551 33.5772C13.1619 34.3269 13.2069 35.0757 13.2899 35.8208C13.3418 36.3358 13.5716 36.8166 13.9397 37.1805L17.7881 41.0289C18.1523 41.3973 18.6336 41.6271 19.149 41.6787C19.8896 41.7613 20.634 41.8063 21.3791 41.8135L20.2892 51.7442C20.2722 51.9125 20.2941 52.0825 20.3532 52.241C20.4124 52.3995 20.5072 52.5422 20.6303 52.6582C20.7534 52.7743 20.9016 52.8604 21.0633 52.91C21.225 52.9597 21.396 52.9714 21.563 52.9444C24.6158 52.454 31.7389 50.653 34.4447 44.4642C35.401 42.2696 35.5971 39.7085 35.3764 37.1461C37.0931 35.9364 38.7008 34.579 40.1812 33.0893C48.5646 24.7524 54.3379 9.68972 52.7318 2.69045ZM32.7295 22.2894C31.9972 21.5573 31.4985 20.6245 31.2964 19.609C31.0943 18.5934 31.1979 17.5408 31.5941 16.5841C31.9903 15.6275 32.6613 14.8098 33.5222 14.2345C34.3832 13.6592 35.3954 13.3522 36.4308 13.3522C37.4662 13.3522 38.4784 13.6592 39.3394 14.2345C40.2003 14.8098 40.8713 15.6275 41.2675 16.5841C41.6637 17.5408 41.7673 18.5934 41.5652 19.609C41.3631 20.6245 40.8644 21.5573 40.1321 22.2894C39.6464 22.7761 39.0695 23.1623 38.4344 23.4257C37.7993 23.6892 37.1184 23.8248 36.4308 23.8248C35.7432 23.8248 35.0624 23.6892 34.4272 23.4257C33.7921 23.1623 33.2152 22.7761 32.7295 22.2894Z" stroke="white" stroke-width="2.35762" stroke-linecap="round" stroke-linejoin="round"/>
<path d="M9.55545 39.2488C8.33327 39.3988 7.19624 39.9529 6.32493 40.823C4.1647 42.9906 3.95996 51.0184 3.95996 51.0184C3.95996 51.0184 11.9928 50.8137 14.1542 48.651C15.0278 47.7811 15.5828 46.6422 15.7296 45.418" stroke="white" stroke-width="2.35762" stroke-linecap="round" stroke-linejoin="round"/>
</svg>
