<svg width="46" height="44" viewBox="0 0 46 44" fill="none" xmlns="http://www.w3.org/2000/svg">
<circle cx="25.1854" cy="20.8143" r="20.8143" fill="#01FF66"/>
<path fill-rule="evenodd" clip-rule="evenodd" d="M29.5591 16.6739C29.2111 16.7361 28.7203 16.8973 27.9328 17.1592L21.9881 19.1416C21.2299 19.3943 20.6952 19.5729 20.3106 19.723C20.1694 19.7762 20.0313 19.8371 19.8967 19.9052C19.8179 19.9465 19.7905 19.9693 19.7886 19.9693C19.7004 20.0547 19.6303 20.157 19.5824 20.27C19.5345 20.383 19.5098 20.5045 19.5098 20.6273C19.5098 20.75 19.5345 20.8715 19.5824 20.9845C19.6303 21.0975 19.7004 21.1998 19.7886 21.2852C19.8225 21.3102 19.8587 21.332 19.8967 21.3502C19.9883 21.3987 20.121 21.4582 20.3106 21.5333C20.6952 21.6826 21.2299 21.8611 21.9881 22.1138L22.0394 22.1312C22.2894 22.2136 22.5092 22.2869 22.7115 22.394C23.1994 22.6519 23.5982 23.0508 23.8562 23.5386C23.9633 23.7401 24.0366 23.9598 24.119 24.2107L24.1373 24.262C24.3891 25.0202 24.5677 25.5549 24.7178 25.9395C24.7706 26.0808 24.8314 26.219 24.9 26.3534C24.9413 26.4321 24.9641 26.4596 24.9641 26.4614C25.0495 26.5496 25.1518 26.6197 25.2648 26.6676C25.3778 26.7155 25.4993 26.7402 25.6221 26.7402C25.7448 26.7402 25.8663 26.7155 25.9794 26.6676C26.0924 26.6197 26.1946 26.5496 26.28 26.4614C26.3051 26.4276 26.3268 26.3914 26.345 26.3534C26.3935 26.2618 26.4531 26.129 26.5282 25.9386C26.6774 25.554 26.856 25.0202 27.1087 24.2629L29.0893 18.3193C29.3522 17.5318 29.5133 17.0392 29.5747 16.6922L29.5792 16.6711C29.5722 16.6723 29.5652 16.6735 29.5582 16.6748M29.2377 14.8718C29.7413 14.7821 30.4327 14.7555 30.9638 15.2866C31.4949 15.8177 31.4674 16.5081 31.3786 17.0127C31.2907 17.5089 31.0828 18.1307 30.8493 18.8321L30.8273 18.898L28.8458 24.8407L28.8366 24.8682C28.5949 25.5934 28.4026 26.1721 28.2332 26.6043C28.0748 27.0117 27.887 27.4329 27.6032 27.7278C27.3468 27.9945 27.0393 28.2067 26.6989 28.3516C26.3586 28.4966 25.9925 28.5713 25.6225 28.5713C25.2526 28.5713 24.8865 28.4966 24.5461 28.3516C24.2058 28.2067 23.8982 27.9945 23.6419 27.7278C23.358 27.4329 23.1703 27.0117 23.0119 26.6043C22.8425 26.1721 22.6502 25.5934 22.4075 24.8672L22.3984 24.8416C22.2885 24.5111 22.2638 24.4451 22.2372 24.3948C22.1512 24.232 22.0181 24.0989 21.8554 24.0129C21.805 23.9855 21.7391 23.9617 21.4085 23.8509L21.3829 23.8417C20.6567 23.6 20.078 23.4077 19.6449 23.2383C19.2383 23.0799 18.8171 22.8922 18.5222 22.6083C18.2555 22.352 18.0433 22.0444 17.8984 21.7041C17.7534 21.3637 17.6787 20.9976 17.6787 20.6277C17.6787 20.2578 17.7534 19.8917 17.8984 19.5513C18.0433 19.211 18.2555 18.9035 18.5222 18.6471C18.8171 18.3633 19.2383 18.1756 19.6449 18.0171C20.2196 17.8027 20.7991 17.6012 21.3829 17.4128L21.4085 17.4036L27.3523 15.4231L27.4182 15.4011C28.1196 15.1676 28.7414 14.9597 29.2377 14.8718Z" fill="white"/>
</svg>
